<?xml version="1.0" encoding="UTF-8"?>
<!--Generator: Apple Native CoreSVG 341-->
<!DOCTYPE svg
PUBLIC "-//W3C//DTD SVG 1.1//EN"
       "http://www.w3.org/Graphics/SVG/1.1/DTD/svg11.dtd">
<svg version="1.1" xmlns="http://www.w3.org/2000/svg" xmlns:xlink="http://www.w3.org/1999/xlink" viewBox="0 0 48.1445 47.8271">
 <g>
  <rect height="47.8271" opacity="0" width="48.1445" x="0" y="0"/>
  <path d="M0 13.5742C0 14.6484 0.878906 15.5273 1.95312 15.5273C3.05176 15.5273 3.93066 14.6484 3.93066 13.5742L3.93066 8.95996C3.93066 5.85938 5.78613 3.97949 8.91113 3.97949L13.623 3.97949C14.6973 3.97949 15.6006 3.07617 15.6006 2.00195C15.6006 0.927734 14.6973 0.0488281 13.623 0.0488281L8.91113 0.0488281C3.36914 0.0488281 0 3.44238 0 8.95996ZM47.8027 13.5742L47.8027 8.95996C47.8027 3.44238 44.4336 0.0488281 38.8916 0.0488281L34.1553 0.0488281C33.0811 0.0488281 32.2021 0.927734 32.2021 2.00195C32.2021 3.07617 33.0811 3.97949 34.1553 3.97949L38.8916 3.97949C42.0166 3.97949 43.8721 5.85938 43.8721 8.95996L43.8721 13.5742C43.8721 14.6484 44.751 15.5273 45.8252 15.5273C46.8994 15.5273 47.8027 14.6484 47.8027 13.5742ZM0 34.3018L0 38.916C0 44.4336 3.36914 47.8271 8.91113 47.8271L13.623 47.8271C14.6973 47.8271 15.6006 46.9482 15.6006 45.874C15.6006 44.7998 14.6973 43.8965 13.623 43.8965L8.91113 43.8965C5.78613 43.8965 3.93066 42.0166 3.93066 38.916L3.93066 34.3018C3.93066 33.2275 3.05176 32.3242 1.95312 32.3242C0.878906 32.3242 0 33.2275 0 34.3018ZM47.8027 34.3018C47.8027 33.2275 46.8994 32.3242 45.8252 32.3242C44.751 32.3242 43.8721 33.2275 43.8721 34.3018L43.8721 38.916C43.8721 42.0166 42.0166 43.8965 38.8916 43.8965L34.1553 43.8965C33.0811 43.8965 32.2021 44.7998 32.2021 45.874C32.2021 46.9482 33.0811 47.8271 34.1553 47.8271L38.8916 47.8271C44.4336 47.8271 47.8027 44.4336 47.8027 38.916Z" fill="black" fill-opacity="0.85"/>
 </g>
</svg>
